<svg width="70" height="70" viewBox="0 0 70 70" fill="none" xmlns="http://www.w3.org/2000/svg">
<g clip-path="url(#clip0_68_635)">
<path d="M15.3275 28.1608C18.3113 28.1608 21.2281 29.0456 23.709 30.7033C26.1899 32.361 28.1235 34.7171 29.2654 37.4738C30.4072 40.2304 30.706 43.2638 30.1239 46.1902C29.5418 49.1166 28.1049 51.8047 25.9951 53.9146C23.8853 56.0244 21.1971 57.4613 18.2707 58.0434C15.3443 58.6255 12.3109 58.3267 9.5543 57.1849C6.79765 56.043 4.44151 54.1094 2.78381 51.6285C1.12612 49.1476 0.241329 46.2308 0.241329 43.247L0.172363 41.0919C0.172363 33.0896 3.35123 25.4152 9.00966 19.7567C14.6681 14.0983 22.3426 10.9194 30.3448 10.9194V19.5401C27.5133 19.5325 24.7084 20.0863 22.0923 21.1694C19.4762 22.2526 17.1008 23.8436 15.1034 25.8505C14.3271 26.6253 13.6109 27.4582 12.9612 28.3418C13.7327 28.2212 14.5215 28.1565 15.3232 28.1565L15.3275 28.1608ZM54.1206 28.1608C57.1044 28.1608 60.0212 29.0456 62.5021 30.7033C64.983 32.361 66.9166 34.7171 68.0585 37.4738C69.2003 40.2304 69.4991 43.2638 68.917 46.1902C68.3349 49.1166 66.898 51.8047 64.7882 53.9146C62.6784 56.0244 59.9903 57.4613 57.0638 58.0434C54.1374 58.6255 51.104 58.3267 48.3474 57.1849C45.5908 56.043 43.2346 54.1094 41.5769 51.6285C39.9192 49.1476 39.0344 46.2308 39.0344 43.247L38.9655 41.0919C38.9655 33.0896 42.1443 25.4152 47.8028 19.7567C53.4612 14.0983 61.1357 10.9194 69.1379 10.9194V19.5401C66.3064 19.5325 63.5016 20.0863 60.8854 21.1694C58.2693 22.2526 55.8939 23.8436 53.8965 25.8505C53.1202 26.6253 52.404 27.4582 51.7543 28.3418C52.5258 28.2212 53.3146 28.1565 54.1206 28.1565V28.1608Z" fill="white"/>
</g>
<defs>
<clipPath id="clip0_68_635">
<rect width="68.9655" height="68.9655" fill="white" transform="translate(0.172363 0.861816)"/>
</clipPath>
</defs>
</svg>
