<svg width="474" height="486" viewBox="0 0 474 486" fill="none" xmlns="http://www.w3.org/2000/svg">
<line opacity="0.69" x1="168.5" y1="6.55671e-08" x2="168.5" y2="486" stroke="#D8C691" stroke-opacity="0.2" stroke-width="3"/>
<line opacity="0.69" x1="320.5" y1="6.55671e-08" x2="320.5" y2="486" stroke="#D8C691" stroke-opacity="0.2" stroke-width="3"/>
<line opacity="0.69" x1="472.5" y1="6.55671e-08" x2="472.5" y2="486" stroke="#D8C691" stroke-opacity="0.2" stroke-width="3"/>
<line opacity="0.69" y1="86.5" x2="167" y2="86.5" stroke="#D8C691" stroke-opacity="0.2" stroke-width="3"/>
<line opacity="0.69" y1="387.5" x2="167" y2="387.5" stroke="#D8C691" stroke-opacity="0.2" stroke-width="3"/>
<line opacity="0.69" x1="322" y1="86.5" x2="471" y2="86.5" stroke="#D8C691" stroke-opacity="0.2" stroke-width="3"/>
<line opacity="0.69" x1="170" y1="239.5" x2="319" y2="239.5" stroke="#D8C691" stroke-opacity="0.2" stroke-width="3"/>
<line opacity="0.69" x1="319" y1="387.5" x2="471" y2="387.5" stroke="#D8C691" stroke-opacity="0.2" stroke-width="3"/>
<line opacity="0.69" x1="244.5" y1="-6.55671e-08" x2="244.5" y2="161" stroke="#D8C691" stroke-opacity="0.2" stroke-width="3"/>
<line opacity="0.69" x1="244.5" y1="315" x2="244.5" y2="486" stroke="#D8C691" stroke-opacity="0.2" stroke-width="3"/>
<line opacity="0.69" x1="397.5" y1="168" x2="397.5" y2="311" stroke="#D8C691" stroke-opacity="0.2" stroke-width="3"/>
<line opacity="0.69" x1="84.5" y1="164" x2="84.5" y2="311" stroke="#D8C691" stroke-opacity="0.2" stroke-width="3"/>
<line opacity="0.69" x1="1.31134e-07" y1="162.5" x2="471" y2="162.5" stroke="#D8C691" stroke-opacity="0.2" stroke-width="3"/>
<line opacity="0.69" x1="1.31134e-07" y1="312.5" x2="471" y2="312.5" stroke="#D8C691" stroke-opacity="0.2" stroke-width="3"/>
</svg>
